<?xml version="1.0" encoding="utf-8"?>
<!-- Generator: Adobe Illustrator 27.0.0, SVG Export Plug-In . SVG Version: 6.00 Build 0)  -->
<svg version="1.1" id="Livello_1" xmlns="http://www.w3.org/2000/svg" xmlns:xlink="http://www.w3.org/1999/xlink" x="0px" y="0px"
	 viewBox="0 0 128 128" style="enable-background:new 0 0 128 128;" xml:space="preserve">
<style type="text/css">
	.st0{fill:#FFA8A7;stroke:#FFA8A7;stroke-width:6;stroke-linejoin:round;stroke-miterlimit:10;}
	.st1{fill:#FFA8A7;}
</style>
<g id="Слой_2">
	<path class="st0" d="M23.4,60.8C65,66.4,76.2,66.2,87.5,64s21.7-4.3,21.7-4.3s4.5-21.9,0.8-24.3c-3.8-2.3-18.5-5-18.5-5
		s-48.2-7.3-53.1-6.4C33.4,25,21,23.3,17.6,23.7c-3.4,0.4-7.2,3.6-7.9,4.6C9,29.3,5,34,4.4,37C3.8,39.9,3.8,60.1,4,61
		c0.2,1,3.7,22.7,3.7,22.7v18.2l13.3,4.5h43.5l37.7-1.4l15.6-3.1l1.6-7.9c0,0,4.4-46.3,4.4-47c0-0.8-4.4-20.7-4.4-20.7
		s-17.1-4.7-19.1-4.7s-25.1,2.8-28.8,2.1s-22.2-1.9-23.7-1.9S30.4,36.8,30.4,36.8"/>
</g>
<g>
	<path class="st1" d="M14.1,96.1c-0.5,0-0.9-0.2-1.2-0.6c-0.5-0.7-0.4-1.6,0.3-2.1l38.5-29L12.8,34.6c-0.7-0.5-0.8-1.4-0.3-2.1
		c0.3-0.4,0.7-0.6,1.2-0.6c0.3,0,0.6,0.1,0.9,0.3L62,68.5c0.4,0.3,1,0.5,1.5,0.5s1.1-0.2,1.5-0.5l48.4-36.1c0.3-0.2,0.6-0.3,0.9-0.3
		c0.5,0,0.9,0.2,1.2,0.6c0.5,0.6,0.3,1.6-0.3,2.1L75.7,64.4l38.9,29c0.3,0.2,0.5,0.6,0.6,1c0.1,0.4,0,0.8-0.3,1.1
		c-0.3,0.4-0.7,0.6-1.2,0.6c0,0,0,0,0,0c-0.3,0-0.6-0.1-0.9-0.3L73.2,66.3L66.8,71c-1,0.7-2.1,1.1-3.3,1.1c-1.2,0-2.4-0.4-3.3-1.1
		l-6.1-4.7L15,95.8C14.7,96,14.4,96.1,14.1,96.1z"/>
	<path d="M13.7,33.4l40.4,30.9l0,0L51,62L13.7,33.4C13.7,33.4,13.7,33.4,13.7,33.4 M114.3,33.6L114.3,33.6L114.3,33.6L114.3,33.6
		 M73.2,64.4l3.2,2.4l37.3,27.8L75,65.7L73.2,64.4l-1.8,1.4l-5.4,4.1c-0.7,0.5-1.5,0.8-2.4,0.8c-0.9,0-1.7-0.3-2.4-0.8l-5.1-4
		l5.1,3.9c0.7,0.5,1.5,0.8,2.4,0.8c0.9,0,1.7-0.3,2.4-0.8L73.2,64.4 M13.7,30.4c-0.9,0-1.8,0.4-2.4,1.2c-1,1.3-0.8,3.2,0.6,4.2
		l37.3,28.5L12.3,92.2c-1.3,1-1.6,2.9-0.6,4.2c0.6,0.8,1.5,1.2,2.4,1.2c0.6,0,1.3-0.2,1.8-0.6l38.2-28.9l5.2,4
		c1.3,1,2.8,1.4,4.3,1.4c1.5,0,2.9-0.5,4.2-1.4l5.4-4.1L111.8,97c0.5,0.4,1.2,0.6,1.8,0.6c0.9,0,1.8-0.4,2.4-1.2
		c1-1.3,0.7-3.2-0.6-4.2L78.2,64.4L116.1,36c1.3-1,1.6-2.8,0.6-4.2c-0.6-0.8-1.5-1.2-2.4-1.2c-0.6,0-1.3,0.2-1.8,0.6c0,0,0,0,0,0
		L64.1,67.3c-0.2,0.1-0.4,0.2-0.6,0.2s-0.4-0.1-0.6-0.2L15.5,31.1C15,30.6,14.3,30.4,13.7,30.4L13.7,30.4z"/>
</g>
<g>
	<path class="st1" d="M15,107.5c-7.4,0-13.5-6.1-13.5-13.5V34c0-7.4,6.1-13.5,13.5-13.5h98c7.4,0,13.5,6.1,13.5,13.5v60
		c0,7.4-6.1,13.5-13.5,13.5H15z M15,23.5C9.2,23.5,4.5,28.2,4.5,34v60c0,5.8,4.7,10.5,10.5,10.5h98c5.8,0,10.5-4.7,10.5-10.5V34
		c0-5.8-4.7-10.5-10.5-10.5H15z"/>
	<path d="M3,34v60c0,6.6,5.4,12,12,12h98c6.6,0,12-5.4,12-12c0,6.6-5.4,12-12,12H15c-6.6,0-12-5.4-12-12V34 M113,19H15
		C6.7,19,0,25.7,0,34v60c0,8.3,6.7,15,15,15h98c8.3,0,15-6.7,15-15V34C128,25.7,121.3,19,113,19L113,19z M15,103c-5,0-9-4-9-9V34
		c0-5,4-9,9-9h98c5,0,9,4,9,9v60c0,5-4,9-9,9H15L15,103z"/>
</g>
</svg>
