<?xml version="1.0" ?><!DOCTYPE svg  PUBLIC '-//W3C//DTD SVG 1.1//EN'  'http://www.w3.org/Graphics/SVG/1.1/DTD/svg11.dtd'><svg enable-background="new 0 0 512 512" version="1.1" viewBox="0 0 512 512" xml:space="preserve" xmlns="http://www.w3.org/2000/svg" xmlns:xlink="http://www.w3.org/1999/xlink"><g id="Layer_1"/><g id="Layer_2"><g><path d="M410.9,186.6c0-0.1,0-0.2-0.1-0.2c0-0.2-0.1-0.3-0.1-0.5c0-0.1-0.1-0.3-0.1-0.4c0-0.1-0.1-0.2-0.1-0.3    c-0.2-0.5-0.4-0.9-0.7-1.3c0,0,0,0,0,0l-65-95.5c-1.4-2.1-3.7-3.3-6.2-3.3h-63.6h-37.9h-63.6c-2.5,0-4.8,1.2-6.2,3.3l-65,95.5    c0,0,0,0,0,0c-0.3,0.4-0.5,0.9-0.7,1.3c0,0.1-0.1,0.2-0.1,0.3c-0.1,0.1-0.1,0.3-0.1,0.4c0,0.2-0.1,0.3-0.1,0.5    c0,0.1,0,0.2-0.1,0.2c-0.1,0.5-0.2,1-0.2,1.5c0,0,0,0,0,0v231.3c0,4.1,3.4,7.5,7.5,7.5h295.1c4.1,0,7.5-3.4,7.5-7.5V188.1    c0,0,0,0,0,0C411,187.6,411,187.1,410.9,186.6z M389.3,180.6h-96.9l-9.1-80.5h51.2L389.3,180.6z M233.7,195.6h44.5v55L260.3,238    c-1.3-0.9-2.8-1.4-4.3-1.4s-3,0.5-4.3,1.4l-17.9,12.6V195.6z M268.2,100.1l9.1,80.5h-42.7l9.1-80.5H268.2z M177.5,100.1h51.2    l-9.1,80.5h-96.9L177.5,100.1z M396,411.9H116V195.6h102.8v69.4c0,2.8,1.6,5.4,4,6.7c2.5,1.3,5.5,1.1,7.8-0.5l25.4-17.9l25.4,17.9    c1.3,0.9,2.8,1.4,4.3,1.4c1.2,0,2.4-0.3,3.5-0.8c2.5-1.3,4-3.9,4-6.7v-69.4H396V411.9z"/><path d="M201,330.4h-53.2c-4.1,0-7.5,3.4-7.5,7.5s3.4,7.5,7.5,7.5H201c4.1,0,7.5-3.4,7.5-7.5S205.1,330.4,201,330.4z"/><path d="M174.4,361.9h-26.6c-4.1,0-7.5,3.4-7.5,7.5s3.4,7.5,7.5,7.5h26.6c4.1,0,7.5-3.4,7.5-7.5S178.5,361.9,174.4,361.9z"/></g></g></svg>