<svg xmlns="http://www.w3.org/2000/svg" xmlns:xlink="http://www.w3.org/1999/xlink" version="1.1" width="1000" height="1000" viewBox="0 0 1000 1000" xml:space="preserve">
<desc>Created with Fabric.js 3.5.0</desc>
<defs>
</defs>
<rect x="0" y="0" width="100%" height="100%" fill="#ffffff"/>
<g transform="matrix(-0.9276 0 0 0.9276 500.0059 500.0086)" id="994921">
<path style="stroke: none; stroke-width: 1; stroke-dasharray: none; stroke-linecap: butt; stroke-dashoffset: 0; stroke-linejoin: miter; stroke-miterlimit: 4; is-custom-font: none; font-file-url: none; fill: rgb(0,0,0); fill-rule: nonzero; opacity: 1;" vector-effect="non-scaling-stroke" transform=" translate(-500.0778, -499.9676)" d="M 224.5 990 c -17.8 0 -36.1 -7.4 -47.8 -20.8 c -20.8 -23.3 -16.5 -57.6 9.8 -76.6 l 491.3 -390.2 L 185.9 106.7 c -26.3 -19 -30.6 -53.3 -9.2 -76.6 c 21.4 -23.3 59.4 -27 86.4 -8 l 551.3 439.2 c 14.7 10.4 22.7 25.7 22.7 42.3 c 0 16.5 -8.6 31.9 -23.3 42.3 L 262.4 978.4 C 251.4 986.3 237.9 990 224.5 990 z" stroke-linecap="round"/>
</g>
</svg>