<?xml version="1.0" ?><svg viewBox="0 0 512 512" xmlns="http://www.w3.org/2000/svg"><title/><g id="Noodle"><path d="M146.3227,33.2455l48.8664.6366V43.9527a15.5705,15.5705,0,0,1-.5638,4.3554l14.7287.8749a31.506,31.506,0,0,0,.418-5.23v-9.88l21.1939.276v9.6045a13.8369,13.8369,0,0,1-1.3806,6.4358l15.1176.9042a30.8757,30.8757,0,0,0,.8459-7.34V34.5382l21.2035.2763v9.1382a13.2278,13.2278,0,0,1-2.6735,8.4872l15.8078.943a29.655,29.655,0,0,0,1.4486-9.43V35.0045l21.1938.276v8.6722c0,4.6276-1.4874,7.3885-4.3554,10.5191l16.6926,1.0012a28.764,28.764,0,0,0,2.2457-11.52v-8.482l36.4429.4747h0L490.547,37.73c.0758.0006.2025.001.2786,0a10.695,10.695,0,0,0-.2786-21.3882L368.2565,17.9349l-51.1446.6662v-2.57a7.2915,7.2915,0,1,0-14.5829,0v2.76l-21.1938.2761V16.0312a7.2915,7.2915,0,1,0-14.5829,0v3.226l-21.2035.2762V16.0312a7.2915,7.2915,0,1,0-14.5829,0v3.6922L209.772,20V16.0312a7.2915,7.2915,0,1,0-14.5829,0V20.19l-48.8664.6367a6.21,6.21,0,0,0,0,12.4193Z"/><path d="M439.3172,201.6727l-.1275-.1978a7.3783,7.3783,0,0,0-3.887-3.01l-.0425-.0137L297.3155,163.3934a15.9633,15.9633,0,0,1-.4058-3.7206c0-6.2318,2.6833-9.09,7.8456-14.0093,5.5027-5.26,12.3566-11.8024,12.3566-24.5577,0-12.7648-6.8539-19.3076-12.3566-24.5673-3.9471-3.7623-6.4456-6.3289-7.3983-10.12l-14.9232-1.2736c.8555,11.0637,7.1359,17.0523,12.25,21.9425,5.1526,4.9193,7.8456,7.7775,7.8456,14.0189,0,6.2318-2.693,9.09-7.8456,14.0094-5.49,5.2471-12.3213,11.7644-12.3536,24.47L262.0061,154.42c1.1708-3.0829,3.5115-5.4582,6.9725-8.7563,5.5026-5.26,12.3566-11.8024,12.3566-24.5577,0-12.7648-6.854-19.3076-12.3566-24.5673-4.9387-4.7053-7.6123-7.5248-7.8261-13.2217L246.56,82.0724l-.0068.0063c-.1632,13.0625,6.7769,19.6871,12.3537,25.0082,5.1526,4.9193,7.8456,7.7775,7.8456,14.0189,0,6.2318-2.693,9.09-7.8456,14.0094-4.2855,4.089-9.3615,8.9627-11.4151,16.9212a54.5808,54.5808,0,0,0-15.36,1.6142l-6.1817,1.571c1.0557-3.4879,3.495-5.9805,7.2423-9.5581,5.5123-5.26,12.3566-11.8024,12.3566-24.5577,0-12.7648-6.8443-19.3076-12.3566-24.5673-5.1526-4.9193-7.8456-7.7776-7.8456-14.0092a18.4257,18.4257,0,0,1,.1361-2.2653L210.9484,79.02a31.24,31.24,0,0,0-.1847,3.51c0,12.7649,6.8539,19.298,12.3663,24.5576,5.1526,4.9193,7.8359,7.7775,7.8359,14.0189,0,6.2318-2.6833,9.09-7.8359,14.0094-5.4238,5.1751-12.1315,11.5966-12.3462,23.9605L190.2266,164.3a15.0207,15.0207,0,0,1-.6567-4.6273c0-6.2318,2.693-9.09,7.8456-14.0093,5.5123-5.26,12.3565-11.8024,12.3565-24.5577,0-12.7648-6.8442-19.3076-12.3565-24.5673-5.1526-4.9193-7.8456-7.7776-7.8456-14.0092a14.38,14.38,0,0,1,.8749-5.2693l-14.787-1.2736a30.8988,30.8988,0,0,0-.6708,6.5429c0,12.7649,6.8539,19.298,12.3565,24.5576,5.1624,4.9193,7.8456,7.7775,7.8456,14.0189,0,6.2318-2.6832,9.09-7.8456,14.0094-5.5026,5.26-12.3565,11.7927-12.3565,24.5576a30.0711,30.0711,0,0,0,1.0908,8.2232L55.8455,198.4512a9.2849,9.2849,0,0,0-2.4943,1.0784,3.9674,3.9674,0,0,0-1.5288,2.0794L24.1234,253.71a19.8975,19.8975,0,0,0,10.5594,27.962L66.49,293.6507,90.688,432.6744a31.4512,31.4512,0,0,0,19.4245,23.77l122.6811,48.0166a35.0771,35.0771,0,0,0,25.51,0l122.6908-48.0166a31.4634,31.4634,0,0,0,19.4244-23.77l24.1979-139.0237.0009-.0048L456.06,281.8085a20.4725,20.4725,0,0,0,9.0885-6.568,19.9237,19.9237,0,0,0,1.833-21.5318Zm-240.4046-26.54,14.246-3.6205c2.4878,5.5777,6.4946,9.41,9.9714,12.7275,5.1526,4.9193,7.8359,7.7776,7.8359,14.0191,0,6.2317-2.6833,9.09-7.8359,14.0092-.2031.1935-.416.3967-.619.6a103.1956,103.1956,0,0,0-14.7989-3.61.1684.1684,0,0,1,.0281-.0034,28.7438,28.7438,0,0,0,2.0318-10.9955C209.772,186.6287,204.0919,180.1685,198.9126,175.1331Zm70.066-1.4412a41.3445,41.3445,0,0,1-5.4044-5.8332l22.1245,5.6228c2.4824,4.5362,5.9384,7.8469,8.9847,10.7586,5.1526,4.9193,7.8456,7.7776,7.8456,14.0191a13.4961,13.4961,0,0,1-3.461,9.4984c.01,0,.021.0073.0313.0082a112.5671,112.5671,0,0,0-20.3405,2.6944c.007-.002.0124-.008.02-.01a28.32,28.32,0,0,0,2.5568-12.1914C281.3352,185.4942,274.4812,178.9514,268.9786,173.6919ZM315.3663,208.2c.0376,0,.0746-.0087.1124-.005a29.0464,29.0464,0,0,0,1.6332-9.9358,27.88,27.88,0,0,0-6.5174-18.4508l100.7476,25.6041-52.247,17.54C347.9155,215.2021,332.62,209.8424,315.3663,208.2Zm-80.1216-42.3a41.9046,41.9046,0,0,1,11.6951-1.2432c1.507,9.5713,7.224,15.0581,11.9669,19.5835,5.1526,4.9193,7.8456,7.7776,7.8456,14.0191,0,6.2317-2.693,9.09-7.8456,14.0092a60.0227,60.0227,0,0,0-6.4479,6.8742,33.747,33.747,0,0,1-15.0043-.5887c4.2469-4.656,8.0943-10.7217,8.0943-20.2947,0-12.765-6.8443-19.3078-12.3566-24.5673a41.0955,41.0955,0,0,1-5.4375-5.8886Zm-52.746,13.4045c1.5989,1.8236,3.2754,3.4357,4.8448,4.9358,5.1624,4.9193,7.8456,7.7776,7.8456,14.0191a13.5028,13.5028,0,0,1-3.4027,9.44c.0079,0,.0143.0039.022.0045-1.1389-.0325-2.2826-.0532-3.4343-.0532-22.057,0-41.8434,6.0461-55.4051,15.627L79.7571,205.4146l.0007,0Zm-147.5966,86.31a7.1637,7.1637,0,0,1,.3812-5.9717l25.1844-47.3717,14.663,4.9222L235.4742,271.02l-37.499,52.84a7.262,7.262,0,0,1-8.4777,2.5928L39.136,269.8439A7.1631,7.1631,0,0,1,34.9021,265.6142ZM114.711,444.6714a18.7177,18.7177,0,0,1-11.5692-14.1649L80.2178,298.8147,185.0447,338.28a19.9014,19.9014,0,0,0,23.2373-7.1063l30.9572-43.6214V493.32c-.6222-.1849-1.2346-.389-1.8374-.6321ZM410.88,298.8229,387.9654,430.5065a18.7335,18.7335,0,0,1-11.5691,14.1649L253.7054,492.6879c-.6027.2431-1.2152.4472-1.8277.6321V287.5681l30.9461,43.6056a19.902,19.902,0,0,0,23.2377,7.1063l104.8194-39.4623Zm45.3242-33.2087a7.1652,7.1652,0,0,1-4.2334,4.23L301.6092,326.4523a7.2677,7.2677,0,0,1-8.4786-2.5928l-37.499-52.84L415.9751,217.193l14.6614-4.9217,6.1331,11.5372,0-.0036,19.0524,35.8366A7.167,7.167,0,0,1,456.2042,265.6142Z"/><path d="M491.1235,73.7678,146.7727,53.2433a6.21,6.21,0,0,0-.9,12.3866L355.247,83.5823,489.5735,95.1c.0754.006.2015.0156.2773.02a10.695,10.695,0,1,0,1.2727-21.3521Z"/></g></svg>