<?xml version="1.0" encoding="utf-8"?>
<!-- Generator: Adobe Illustrator 27.0.0, SVG Export Plug-In . SVG Version: 6.00 Build 0)  -->
<svg version="1.1" id="Слой_1" xmlns="http://www.w3.org/2000/svg" xmlns:xlink="http://www.w3.org/1999/xlink" x="0px" y="0px"
	 viewBox="0 0 32 32" style="enable-background:new 0 0 32 32;" xml:space="preserve">
<style type="text/css">
	.st0{fill:#FFA8A7;}
	.st1{fill:#101820;}
</style>
<g id="Layer_54">
	<path class="st0" d="M9.5,4.6h1.8l0.9,0.7l1.8,1.6l1.5,0.9l2-1.6l4.1-0.9l2.9-0.7l3.6,2.3L30,9.7l-1,5.3l-1.6,1.7l-2.9,2.8l-3,2.9
		L19,25.4l-1.6,1.4L16,27.2l-2.8-1.1L11,23.7c0,0-4-3.8-4.2-4c-0.2-0.2-2.3-3.1-2.3-3.1L3,14.2l-0.8-2.5l0.1-3.4l3-2.3l2.5-1.4H9.5z
		"/>
	<path class="st1" d="M16,28.7c-0.8,0-1.6-0.3-2.1-0.9L3.6,17.5C1.9,15.9,1,13.6,1,11.3c0-4.5,3.7-8,8.1-8c0,0,0,0,0,0
		c2.2,0,4.3,0.8,5.8,2.4l1,1l0.8-0.8l0,0c2.9-3,7.6-3.4,11-0.9c3.6,2.8,4.3,8,1.5,11.6c-0.2,0.3-0.4,0.5-0.7,0.8L18.1,27.8
		C17.6,28.4,16.8,28.7,16,28.7z M9.1,5.3C7.6,5.3,6,5.9,4.9,7C3.7,8.1,3,9.7,3,11.3c0,1.8,0.7,3.5,2,4.8l10.3,10.3
		c0.4,0.4,1,0.4,1.4,0c0,0,0,0,0,0l10.5-10.5c1.2-1.3,1.9-3,1.8-4.8c-0.1-1.8-1-3.5-2.4-4.6C24,4.7,20.4,5,18.2,7.3l-1.5,1.5
		c-0.4,0.4-1,0.4-1.4,0c0,0,0,0,0,0l-1.7-1.7C12.4,5.9,10.8,5.3,9.1,5.3L9.1,5.3z"/>
</g>
</svg>
