<?xml version="1.0" encoding="utf-8"?>
<!-- Generator: Adobe Illustrator 27.0.0, SVG Export Plug-In . SVG Version: 6.00 Build 0)  -->
<svg version="1.1" xmlns="http://www.w3.org/2000/svg" xmlns:xlink="http://www.w3.org/1999/xlink" x="0px" y="0px"
	 viewBox="0 0 512 512" style="enable-background:new 0 0 512 512;" xml:space="preserve">
<style type="text/css">
	.st0{fill:#FFA8A7;}
</style>
<g id="Слой_2">
	<polygon class="st0" points="120,62.1 148,85 179,111 193,137 185,165.9 161,183 156.5,197.6 162,216 188,256 210.6,293.5 
		248.1,326.7 280.1,349 307.6,355 339.3,329 364,316.7 372.5,320.2 412,355 436,378 426.1,396 352,431 263,408 180,352 114,274 
		84.1,206 74,133 94,85 	"/>
</g>
<g id="Слой_1">
	<g id="_1">
		<path d="M348.7,450.1c-15.6-0.1-31.2-2.1-46.4-5.9c-52.4-12.6-106.4-44.7-152-90.4s-77.7-99.6-90.4-152
			C46.7,146.8,56.2,99.6,86.7,69.1l8.7-8.7c16.5-16.4,43.1-16.4,59.6,0l50.1,50.1c16.5,16.5,16.5,43.2,0,59.6l-29.6,29.6
			c14.2,24.9,33.5,49.8,56.3,72.6s47.8,42.1,72.6,56.3l29.6-29.6c16.5-16.5,43.1-16.5,59.6,0c0,0,0,0,0,0l50.1,50.1
			c16.5,16.5,16.5,43.1,0,59.6l-8.7,8.7C413.5,439,383.7,450.1,348.7,450.1z M125.2,78c-3.2,0-6.3,1.3-8.6,3.6l-8.7,8.7
			c-22.9,22.9-29.6,60-18.8,104.5c11.4,47.1,40.6,96.1,82.4,137.9s90.7,71,137.9,82.4c44.5,10.7,81.6,4.1,104.5-18.8l8.7-8.7
			c4.7-4.7,4.7-12.4,0-17.2l-50.1-50.1c-4.7-4.7-12.4-4.7-17.2,0l-37.5,37.5c-4.6,4.6-11.7,5.7-17.5,2.7c-30.8-15.9-61.8-39-89.6-67
			s-51-58.9-66.9-89.6c-3-5.8-1.9-12.9,2.7-17.5l37.5-37.5c4.7-4.7,4.7-12.4,0-17.2l-50.1-50.1C131.5,79.3,128.4,78,125.2,78z"/>
		<path d="M364.8,269.7c-8.3,0-15-6.7-15-15l0,0c-0.1-54.8-44.5-99.2-99.2-99.3c-8.3,0-15-6.7-15-15s6.7-15,15-15l0,0
			c71.3,0,129.2,58,129.2,129.3C379.8,263,373,269.7,364.8,269.7C364.8,269.7,364.8,269.7,364.8,269.7z"/>
		<path d="M428.1,269.7c-8.3,0-15-6.7-15-15l0,0c0-89.7-73-162.7-162.6-162.7c-8.3,0-15-6.7-15-15s6.7-15,15-15l0,0
			c106.2,0,192.6,86.4,192.6,192.7C443.1,263,436.4,269.7,428.1,269.7L428.1,269.7z"/>
	</g>
</g>
</svg>
