<?xml version="1.0" encoding="utf-8"?>
<!-- Generator: Adobe Illustrator 27.0.0, SVG Export Plug-In . SVG Version: 6.00 Build 0)  -->
<svg version="1.1" xmlns="http://www.w3.org/2000/svg" xmlns:xlink="http://www.w3.org/1999/xlink" x="0px" y="0px"
	 viewBox="0 0 32 32" style="enable-background:new 0 0 32 32;" xml:space="preserve">
<style type="text/css">
	.st0{fill:#FFA8A7;}
	.st1{fill:#101820;}
</style>
<g id="Слой_2">
	<path class="st0" d="M11.7,3L14,2.3l2.7,0.1l5,1l1.8,1.1l3.3,2.9l1.7,2.4l0.5,2.7l0.4,3.9L29,18.3l-0.6,3.3l-1.1,2.1L25.5,26
		l-2,1.6L20.1,29L16,29.7l-3-0.4l-3.4-1.2c0,0-2.4-1.9-2.5-2s-2.6-3-2.6-3s-0.7-1.7-0.8-1.9C3.6,21,3,18.7,3,18.7l-0.7-2.4V13l1-2.5
		L4.9,8l2.7-2.7l2-1.2L11.7,3z"/>
</g>
<g id="Слой_1">
	<g id="Layer_15">
		<path class="st1" d="M16,31C7.7,31,1,24.3,1,16S7.7,1,16,1s15,6.7,15,15S24.3,31,16,31z M16,3C8.8,3,3,8.8,3,16s5.8,13,13,13
			s13-5.8,13-13S23.2,3,16,3z"/>
		<path class="st1" d="M20.2,21.7l-4.9-5C15.1,16.5,15,16.3,15,16V8h2v7.6l4.7,4.6L20.2,21.7z"/>
	</g>
</g>
</svg>
